<svg width="1296" height="621" viewBox="0 0 1296 621" fill="none" xmlns="http://www.w3.org/2000/svg">
<rect width="1296" height="621" rx="32" fill="white"/>
<path d="M112.83 77L105.72 66.77L108.87 64.82L117.24 77H112.83ZM98.94 77V56H102.78V77H98.94ZM101.61 68.15V64.79H108.69V68.15H101.61ZM109.23 66.95L105.66 66.47L112.83 56H116.97L109.23 66.95ZM126.402 77.21C124.762 77.21 123.302 76.86 122.022 76.16C120.742 75.44 119.732 74.46 118.992 73.22C118.252 71.98 117.882 70.57 117.882 68.99C117.882 67.39 118.252 65.98 118.992 64.76C119.732 63.52 120.742 62.55 122.022 61.85C123.302 61.15 124.762 60.8 126.402 60.8C128.062 60.8 129.532 61.15 130.812 61.85C132.112 62.55 133.122 63.51 133.842 64.73C134.582 65.95 134.952 67.37 134.952 68.99C134.952 70.57 134.582 71.98 133.842 73.22C133.122 74.46 132.112 75.44 130.812 76.16C129.532 76.86 128.062 77.21 126.402 77.21ZM126.402 74C127.322 74 128.142 73.8 128.862 73.4C129.582 73 130.142 72.42 130.542 71.66C130.962 70.9 131.172 70.01 131.172 68.99C131.172 67.95 130.962 67.06 130.542 66.32C130.142 65.56 129.582 64.98 128.862 64.58C128.142 64.18 127.332 63.98 126.432 63.98C125.512 63.98 124.692 64.18 123.972 64.58C123.272 64.98 122.712 65.56 122.292 66.32C121.872 67.06 121.662 67.95 121.662 68.99C121.662 70.01 121.872 70.9 122.292 71.66C122.712 72.42 123.272 73 123.972 73.4C124.692 73.8 125.502 74 126.402 74ZM136.141 76.97L136.321 73.82C136.461 73.84 136.591 73.86 136.711 73.88C136.831 73.9 136.941 73.91 137.041 73.91C137.661 73.91 138.141 73.72 138.481 73.34C138.821 72.96 139.071 72.45 139.231 71.81C139.411 71.15 139.531 70.42 139.591 69.62C139.671 68.8 139.731 67.98 139.771 67.16L140.041 60.98H153.001V77H149.251V63.14L150.121 64.16H142.501L143.311 63.11L143.101 67.34C143.041 68.76 142.921 70.08 142.741 71.3C142.581 72.5 142.321 73.55 141.961 74.45C141.621 75.35 141.141 76.05 140.521 76.55C139.921 77.05 139.151 77.3 138.211 77.3C137.911 77.3 137.581 77.27 137.221 77.21C136.881 77.15 136.521 77.07 136.141 76.97ZM158.051 77V60.98H161.801V71.54L170.651 60.98H174.071V77H170.321V66.44L161.501 77H158.051ZM189.226 70.67C188.466 71.03 187.656 71.33 186.796 71.57C185.956 71.79 185.066 71.9 184.126 71.9C182.106 71.9 180.536 71.43 179.416 70.49C178.296 69.55 177.736 68.09 177.736 66.11V60.98H181.486V65.87C181.486 66.93 181.786 67.7 182.386 68.18C183.006 68.66 183.856 68.9 184.936 68.9C185.656 68.9 186.376 68.81 187.096 68.63C187.816 68.45 188.526 68.2 189.226 67.88V70.67ZM188.956 77V60.98H192.706V77H188.956ZM205.219 77.21C203.439 77.21 201.879 76.86 200.539 76.16C199.219 75.44 198.189 74.46 197.449 73.22C196.729 71.98 196.369 70.57 196.369 68.99C196.369 67.39 196.719 65.98 197.419 64.76C198.139 63.52 199.119 62.55 200.359 61.85C201.619 61.15 203.049 60.8 204.649 60.8C206.209 60.8 207.599 61.14 208.819 61.82C210.039 62.5 210.999 63.46 211.699 64.7C212.399 65.94 212.749 67.4 212.749 69.08C212.749 69.24 212.739 69.42 212.719 69.62C212.719 69.82 212.709 70.01 212.689 70.19H199.339V67.7H210.709L209.239 68.48C209.259 67.56 209.069 66.75 208.669 66.05C208.269 65.35 207.719 64.8 207.019 64.4C206.339 64 205.549 63.8 204.649 63.8C203.729 63.8 202.919 64 202.219 64.4C201.539 64.8 200.999 65.36 200.599 66.08C200.219 66.78 200.029 67.61 200.029 68.57V69.17C200.029 70.13 200.249 70.98 200.689 71.72C201.129 72.46 201.749 73.03 202.549 73.43C203.349 73.83 204.269 74.03 205.309 74.03C206.209 74.03 207.019 73.89 207.739 73.61C208.459 73.33 209.099 72.89 209.659 72.29L211.669 74.6C210.949 75.44 210.039 76.09 208.939 76.55C207.859 76.99 206.619 77.21 205.219 77.21ZM224.14 77.21C222.46 77.21 220.96 76.86 219.64 76.16C218.34 75.44 217.32 74.46 216.58 73.22C215.84 71.98 215.47 70.57 215.47 68.99C215.47 67.39 215.84 65.98 216.58 64.76C217.32 63.52 218.34 62.55 219.64 61.85C220.96 61.15 222.46 60.8 224.14 60.8C225.7 60.8 227.07 61.12 228.25 61.76C229.45 62.38 230.36 63.3 230.98 64.52L228.1 66.2C227.62 65.44 227.03 64.88 226.33 64.52C225.65 64.16 224.91 63.98 224.11 63.98C223.19 63.98 222.36 64.18 221.62 64.58C220.88 64.98 220.3 65.56 219.88 66.32C219.46 67.06 219.25 67.95 219.25 68.99C219.25 70.03 219.46 70.93 219.88 71.69C220.3 72.43 220.88 73 221.62 73.4C222.36 73.8 223.19 74 224.11 74C224.91 74 225.65 73.82 226.33 73.46C227.03 73.1 227.62 72.54 228.1 71.78L230.98 73.46C230.36 74.66 229.45 75.59 228.25 76.25C227.07 76.89 225.7 77.21 224.14 77.21ZM237.495 77V63.26L238.365 64.16H231.855V60.98H246.855V64.16H240.375L241.245 63.26V77H237.495ZM249.575 77V60.98H257.405C259.345 60.98 260.865 61.34 261.965 62.06C263.085 62.78 263.645 63.8 263.645 65.12C263.645 66.42 263.125 67.44 262.085 68.18C261.045 68.9 259.665 69.26 257.945 69.26L258.395 68.33C260.335 68.33 261.775 68.69 262.715 69.41C263.675 70.11 264.155 71.14 264.155 72.5C264.155 73.92 263.625 75.03 262.565 75.83C261.505 76.61 259.895 77 257.735 77H249.575ZM253.145 74.27H257.435C258.455 74.27 259.225 74.11 259.745 73.79C260.265 73.45 260.525 72.94 260.525 72.26C260.525 71.54 260.285 71.01 259.805 70.67C259.325 70.33 258.575 70.16 257.555 70.16H253.145V74.27ZM253.145 67.67H257.075C258.035 67.67 258.755 67.5 259.235 67.16C259.735 66.8 259.985 66.3 259.985 65.66C259.985 65 259.735 64.51 259.235 64.19C258.755 63.87 258.035 63.71 257.075 63.71H253.145V67.67ZM275.289 77.21C273.649 77.21 272.189 76.86 270.909 76.16C269.629 75.44 268.619 74.46 267.879 73.22C267.139 71.98 266.769 70.57 266.769 68.99C266.769 67.39 267.139 65.98 267.879 64.76C268.619 63.52 269.629 62.55 270.909 61.85C272.189 61.15 273.649 60.8 275.289 60.8C276.949 60.8 278.419 61.15 279.699 61.85C280.999 62.55 282.009 63.51 282.729 64.73C283.469 65.95 283.839 67.37 283.839 68.99C283.839 70.57 283.469 71.98 282.729 73.22C282.009 74.46 280.999 75.44 279.699 76.16C278.419 76.86 276.949 77.21 275.289 77.21ZM275.289 74C276.209 74 277.029 73.8 277.749 73.4C278.469 73 279.029 72.42 279.429 71.66C279.849 70.9 280.059 70.01 280.059 68.99C280.059 67.95 279.849 67.06 279.429 66.32C279.029 65.56 278.469 64.98 277.749 64.58C277.029 64.18 276.219 63.98 275.319 63.98C274.399 63.98 273.579 64.18 272.859 64.58C272.159 64.98 271.599 65.56 271.179 66.32C270.759 67.06 270.549 67.95 270.549 68.99C270.549 70.01 270.759 70.9 271.179 71.66C271.599 72.42 272.159 73 272.859 73.4C273.579 73.8 274.389 74 275.289 74ZM303.124 77.21C301.444 77.21 299.944 76.86 298.624 76.16C297.324 75.44 296.304 74.46 295.564 73.22C294.824 71.98 294.454 70.57 294.454 68.99C294.454 67.39 294.824 65.98 295.564 64.76C296.304 63.52 297.324 62.55 298.624 61.85C299.944 61.15 301.444 60.8 303.124 60.8C304.684 60.8 306.054 61.12 307.234 61.76C308.434 62.38 309.344 63.3 309.964 64.52L307.084 66.2C306.604 65.44 306.014 64.88 305.314 64.52C304.634 64.16 303.894 63.98 303.094 63.98C302.174 63.98 301.344 64.18 300.604 64.58C299.864 64.98 299.284 65.56 298.864 66.32C298.444 67.06 298.234 67.95 298.234 68.99C298.234 70.03 298.444 70.93 298.864 71.69C299.284 72.43 299.864 73 300.604 73.4C301.344 73.8 302.174 74 303.094 74C303.894 74 304.634 73.82 305.314 73.46C306.014 73.1 306.604 72.54 307.084 71.78L309.964 73.46C309.344 74.66 308.434 75.59 307.234 76.25C306.054 76.89 304.684 77.21 303.124 77.21ZM316.479 77V63.26L317.349 64.16H310.839V60.98H325.839V64.16H319.359L320.229 63.26V77H316.479ZM330.028 83.03C329.248 83.03 328.468 82.9 327.688 82.64C326.908 82.38 326.258 82.02 325.738 81.56L327.238 78.8C327.618 79.14 328.048 79.41 328.528 79.61C329.008 79.81 329.498 79.91 329.998 79.91C330.678 79.91 331.228 79.74 331.648 79.4C332.068 79.06 332.458 78.49 332.818 77.69L333.748 75.59L334.048 75.14L340.108 60.98H343.708L336.208 78.29C335.708 79.49 335.148 80.44 334.528 81.14C333.928 81.84 333.248 82.33 332.488 82.61C331.748 82.89 330.928 83.03 330.028 83.03ZM333.328 77.57L326.098 60.98H329.998L335.878 74.81L333.328 77.57ZM356.326 75.26V64.16H350.176L350.086 66.74C350.046 67.66 349.986 68.55 349.906 69.41C349.826 70.25 349.696 71.03 349.516 71.75C349.336 72.45 349.076 73.03 348.736 73.49C348.396 73.95 347.946 74.25 347.386 74.39L343.666 73.82C344.266 73.82 344.746 73.63 345.106 73.25C345.486 72.85 345.776 72.31 345.976 71.63C346.196 70.93 346.356 70.14 346.456 69.26C346.556 68.36 346.626 67.43 346.666 66.47L346.876 60.98H360.076V75.26H356.326ZM343.096 80.57V73.82H362.446V80.57H358.936V77H346.576V80.57H343.096ZM373.265 77.21C371.485 77.21 369.925 76.86 368.585 76.16C367.265 75.44 366.235 74.46 365.495 73.22C364.775 71.98 364.415 70.57 364.415 68.99C364.415 67.39 364.765 65.98 365.465 64.76C366.185 63.52 367.165 62.55 368.405 61.85C369.665 61.15 371.095 60.8 372.695 60.8C374.255 60.8 375.645 61.14 376.865 61.82C378.085 62.5 379.045 63.46 379.745 64.7C380.445 65.94 380.795 67.4 380.795 69.08C380.795 69.24 380.785 69.42 380.765 69.62C380.765 69.82 380.755 70.01 380.735 70.19H367.385V67.7H378.755L377.285 68.48C377.305 67.56 377.115 66.75 376.715 66.05C376.315 65.35 375.765 64.8 375.065 64.4C374.385 64 373.595 63.8 372.695 63.8C371.775 63.8 370.965 64 370.265 64.4C369.585 64.8 369.045 65.36 368.645 66.08C368.265 66.78 368.075 67.61 368.075 68.57V69.17C368.075 70.13 368.295 70.98 368.735 71.72C369.175 72.46 369.795 73.03 370.595 73.43C371.395 73.83 372.315 74.03 373.355 74.03C374.255 74.03 375.065 73.89 375.785 73.61C376.505 73.33 377.145 72.89 377.705 72.29L379.715 74.6C378.995 75.44 378.085 76.09 376.985 76.55C375.905 76.99 374.665 77.21 373.265 77.21ZM384.897 77V60.98H388.647V67.49H396.717V60.98H400.467V77H396.717V70.67H388.647V77H384.897ZM408.823 77V63.26L409.693 64.16H403.183V60.98H418.183V64.16H411.703L412.573 63.26V77H408.823ZM427.34 77.21C425.7 77.21 424.24 76.86 422.96 76.16C421.68 75.44 420.67 74.46 419.93 73.22C419.19 71.98 418.82 70.57 418.82 68.99C418.82 67.39 419.19 65.98 419.93 64.76C420.67 63.52 421.68 62.55 422.96 61.85C424.24 61.15 425.7 60.8 427.34 60.8C429 60.8 430.47 61.15 431.75 61.85C433.05 62.55 434.06 63.51 434.78 64.73C435.52 65.95 435.89 67.37 435.89 68.99C435.89 70.57 435.52 71.98 434.78 73.22C434.06 74.46 433.05 75.44 431.75 76.16C430.47 76.86 429 77.21 427.34 77.21ZM427.34 74C428.26 74 429.08 73.8 429.8 73.4C430.52 73 431.08 72.42 431.48 71.66C431.9 70.9 432.11 70.01 432.11 68.99C432.11 67.95 431.9 67.06 431.48 66.32C431.08 65.56 430.52 64.98 429.8 64.58C429.08 64.18 428.27 63.98 427.37 63.98C426.45 63.98 425.63 64.18 424.91 64.58C424.21 64.98 423.65 65.56 423.23 66.32C422.81 67.06 422.6 67.95 422.6 68.99C422.6 70.01 422.81 70.9 423.23 71.66C423.65 72.42 424.21 73 424.91 73.4C425.63 73.8 426.44 74 427.34 74ZM439.594 77V60.98H447.424C449.364 60.98 450.884 61.34 451.984 62.06C453.104 62.78 453.664 63.8 453.664 65.12C453.664 66.42 453.144 67.44 452.104 68.18C451.064 68.9 449.684 69.26 447.964 69.26L448.414 68.33C450.354 68.33 451.794 68.69 452.734 69.41C453.694 70.11 454.174 71.14 454.174 72.5C454.174 73.92 453.644 75.03 452.584 75.83C451.524 76.61 449.914 77 447.754 77H439.594ZM443.164 74.27H447.454C448.474 74.27 449.244 74.11 449.764 73.79C450.284 73.45 450.544 72.94 450.544 72.26C450.544 71.54 450.304 71.01 449.824 70.67C449.344 70.33 448.594 70.16 447.574 70.16H443.164V74.27ZM443.164 67.67H447.094C448.054 67.67 448.774 67.5 449.254 67.16C449.754 66.8 450.004 66.3 450.004 65.66C450.004 65 449.754 64.51 449.254 64.19C448.774 63.87 448.054 63.71 447.094 63.71H443.164V67.67ZM466.459 77V60.98H474.289C476.229 60.98 477.749 61.34 478.849 62.06C479.969 62.78 480.529 63.8 480.529 65.12C480.529 66.42 480.009 67.44 478.969 68.18C477.929 68.9 476.549 69.26 474.829 69.26L475.279 68.33C477.219 68.33 478.659 68.69 479.599 69.41C480.559 70.11 481.039 71.14 481.039 72.5C481.039 73.92 480.509 75.03 479.449 75.83C478.389 76.61 476.779 77 474.619 77H466.459ZM470.029 74.27H474.319C475.339 74.27 476.109 74.11 476.629 73.79C477.149 73.45 477.409 72.94 477.409 72.26C477.409 71.54 477.169 71.01 476.689 70.67C476.209 70.33 475.459 70.16 474.439 70.16H470.029V74.27ZM470.029 67.67H473.959C474.919 67.67 475.639 67.5 476.119 67.16C476.619 66.8 476.869 66.3 476.869 65.66C476.869 65 476.619 64.51 476.119 64.19C475.639 63.87 474.919 63.71 473.959 63.71H470.029V67.67ZM493.775 77V56H497.615V70.91L508.895 56H512.525V77H508.685V62.12L497.405 77H493.775ZM518.413 77V56H527.053C528.913 56 530.503 56.3 531.823 56.9C533.163 57.5 534.193 58.36 534.913 59.48C535.633 60.6 535.993 61.93 535.993 63.47C535.993 65.01 535.633 66.34 534.913 67.46C534.193 68.58 533.163 69.44 531.823 70.04C530.503 70.64 528.913 70.94 527.053 70.94H520.573L522.313 69.11V77H518.413ZM522.313 69.53L520.573 67.64H526.873C528.593 67.64 529.883 67.28 530.743 66.56C531.623 65.82 532.063 64.79 532.063 63.47C532.063 62.13 531.623 61.1 530.743 60.38C529.883 59.66 528.593 59.3 526.873 59.3H520.573L522.313 57.38V69.53ZM539.712 77V56H543.552V70.91L554.832 56H558.462V77H554.622V62.12L543.342 77H539.712ZM568.76 77V58.34L569.69 59.3H561.83V56H579.59V59.3H571.73L572.63 58.34V77H568.76ZM580.609 70.22V67.1H588.859V70.22H580.609ZM593.442 77V56H602.082C603.942 56 605.532 56.3 606.852 56.9C608.192 57.5 609.222 58.36 609.942 59.48C610.662 60.6 611.022 61.93 611.022 63.47C611.022 65.01 610.662 66.34 609.942 67.46C609.222 68.58 608.192 69.44 606.852 70.04C605.532 70.64 603.942 70.94 602.082 70.94H595.602L597.342 69.11V77H593.442ZM597.342 69.53L595.602 67.64H601.902C603.622 67.64 604.912 67.28 605.772 66.56C606.652 65.82 607.092 64.79 607.092 63.47C607.092 62.13 606.652 61.1 605.772 60.38C604.912 59.66 603.622 59.3 601.902 59.3H595.602L597.342 57.38V69.53ZM618.506 77V58.34L619.436 59.3H611.576V56H629.336V59.3H621.476L622.376 58.34V77H618.506ZM643.087 75.65C640.447 75.65 638.197 75.29 636.337 74.57C634.497 73.85 633.087 72.81 632.107 71.45C631.127 70.07 630.637 68.41 630.637 66.47C630.637 64.49 631.127 62.82 632.107 61.46C633.087 60.1 634.497 59.06 636.337 58.34C638.197 57.62 640.447 57.26 643.087 57.26C643.127 57.26 643.217 57.26 643.357 57.26C643.517 57.26 643.667 57.26 643.807 57.26C643.967 57.26 644.057 57.26 644.077 57.26C646.697 57.26 648.927 57.62 650.767 58.34C652.607 59.06 654.007 60.11 654.967 61.49C655.927 62.85 656.407 64.51 656.407 66.47C656.407 68.39 655.927 70.04 654.967 71.42C654.027 72.8 652.647 73.85 650.827 74.57C649.027 75.29 646.827 75.65 644.227 75.65C644.187 75.65 644.077 75.65 643.897 75.65C643.737 75.65 643.567 75.65 643.387 75.65C643.227 75.65 643.127 75.65 643.087 75.65ZM643.477 72.62C643.517 72.62 643.577 72.62 643.657 72.62C643.737 72.62 643.787 72.62 643.807 72.62C645.747 72.6 647.367 72.36 648.667 71.9C649.987 71.44 650.977 70.76 651.637 69.86C652.317 68.94 652.657 67.8 652.657 66.44C652.657 65.08 652.317 63.95 651.637 63.05C650.957 62.15 649.967 61.47 648.667 61.01C647.367 60.55 645.767 60.32 643.867 60.32C643.847 60.32 643.787 60.32 643.687 60.32C643.587 60.32 643.517 60.32 643.477 60.32C641.497 60.32 639.827 60.55 638.467 61.01C637.127 61.45 636.117 62.13 635.437 63.05C634.777 63.95 634.447 65.09 634.447 66.47C634.447 67.85 634.797 69 635.497 69.92C636.217 70.82 637.247 71.5 638.587 71.96C639.927 72.4 641.557 72.62 643.477 72.62ZM641.737 77.84V55.16H645.337V77.84H641.737Z" fill="black"/>
<path d="M102.22 481.12C101.207 481.12 100.247 480.96 99.34 480.64C98.4467 480.307 97.7267 479.867 97.18 479.32L97.88 478.18C98.3333 478.647 98.94 479.033 99.7 479.34C100.473 479.647 101.313 479.8 102.22 479.8C103.38 479.8 104.267 479.547 104.88 479.04C105.507 478.533 105.82 477.853 105.82 477C105.82 476.147 105.513 475.467 104.9 474.96C104.3 474.453 103.347 474.2 102.04 474.2H101.04V473.14L105.36 467.72L105.56 468.28H97.76V467H106.76V468.02L102.44 473.44L101.74 472.98H102.28C103.96 472.98 105.213 473.353 106.04 474.1C106.88 474.847 107.3 475.807 107.3 476.98C107.3 477.767 107.113 478.473 106.74 479.1C106.367 479.727 105.8 480.22 105.04 480.58C104.293 480.94 103.353 481.12 102.22 481.12ZM114.909 481.12C113.829 481.12 112.869 480.84 112.029 480.28C111.189 479.707 110.529 478.893 110.049 477.84C109.569 476.773 109.329 475.493 109.329 474C109.329 472.507 109.569 471.233 110.049 470.18C110.529 469.113 111.189 468.3 112.029 467.74C112.869 467.167 113.829 466.88 114.909 466.88C115.989 466.88 116.949 467.167 117.789 467.74C118.629 468.3 119.289 469.113 119.769 470.18C120.262 471.233 120.509 472.507 120.509 474C120.509 475.493 120.262 476.773 119.769 477.84C119.289 478.893 118.629 479.707 117.789 480.28C116.949 480.84 115.989 481.12 114.909 481.12ZM114.909 479.8C115.736 479.8 116.456 479.58 117.069 479.14C117.682 478.687 118.162 478.033 118.509 477.18C118.856 476.313 119.029 475.253 119.029 474C119.029 472.747 118.856 471.693 118.509 470.84C118.162 469.973 117.682 469.32 117.069 468.88C116.456 468.427 115.736 468.2 114.909 468.2C114.109 468.2 113.396 468.427 112.769 468.88C112.142 469.32 111.656 469.973 111.309 470.84C110.962 471.693 110.789 472.747 110.789 474C110.789 475.253 110.962 476.313 111.309 477.18C111.656 478.033 112.142 478.687 112.769 479.14C113.396 479.58 114.109 479.8 114.909 479.8ZM128.151 481.12C127.071 481.12 126.111 480.84 125.271 480.28C124.431 479.707 123.771 478.893 123.291 477.84C122.811 476.773 122.571 475.493 122.571 474C122.571 472.507 122.811 471.233 123.291 470.18C123.771 469.113 124.431 468.3 125.271 467.74C126.111 467.167 127.071 466.88 128.151 466.88C129.231 466.88 130.191 467.167 131.031 467.74C131.871 468.3 132.531 469.113 133.011 470.18C133.505 471.233 133.751 472.507 133.751 474C133.751 475.493 133.505 476.773 133.011 477.84C132.531 478.893 131.871 479.707 131.031 480.28C130.191 480.84 129.231 481.12 128.151 481.12ZM128.151 479.8C128.978 479.8 129.698 479.58 130.311 479.14C130.925 478.687 131.405 478.033 131.751 477.18C132.098 476.313 132.271 475.253 132.271 474C132.271 472.747 132.098 471.693 131.751 470.84C131.405 469.973 130.925 469.32 130.311 468.88C129.698 468.427 128.978 468.2 128.151 468.2C127.351 468.2 126.638 468.427 126.011 468.88C125.385 469.32 124.898 469.973 124.551 470.84C124.205 471.693 124.031 472.747 124.031 474C124.031 475.253 124.205 476.313 124.551 477.18C124.898 478.033 125.385 478.687 126.011 479.14C126.638 479.58 127.351 479.8 128.151 479.8Z" fill="black"/>
<path d="M102.46 369.12C101.46 369.12 100.507 368.96 99.6 368.64C98.6933 368.307 97.9733 367.867 97.44 367.32L98.14 366.18C98.58 366.647 99.18 367.033 99.94 367.34C100.713 367.647 101.547 367.8 102.44 367.8C103.627 367.8 104.527 367.54 105.14 367.02C105.767 366.487 106.08 365.793 106.08 364.94C106.08 364.34 105.933 363.827 105.64 363.4C105.36 362.96 104.88 362.62 104.2 362.38C103.52 362.14 102.587 362.02 101.4 362.02H98.42L99.14 355H106.8V356.28H99.72L100.46 355.58L99.84 361.46L99.1 360.74H101.72C103.133 360.74 104.267 360.913 105.12 361.26C105.973 361.607 106.587 362.093 106.96 362.72C107.347 363.333 107.54 364.053 107.54 364.88C107.54 365.667 107.353 366.387 106.98 367.04C106.607 367.68 106.047 368.187 105.3 368.56C104.553 368.933 103.607 369.12 102.46 369.12ZM114.948 369.12C113.868 369.12 112.908 368.84 112.068 368.28C111.228 367.707 110.568 366.893 110.088 365.84C109.608 364.773 109.368 363.493 109.368 362C109.368 360.507 109.608 359.233 110.088 358.18C110.568 357.113 111.228 356.3 112.068 355.74C112.908 355.167 113.868 354.88 114.948 354.88C116.028 354.88 116.988 355.167 117.828 355.74C118.668 356.3 119.328 357.113 119.808 358.18C120.301 359.233 120.548 360.507 120.548 362C120.548 363.493 120.301 364.773 119.808 365.84C119.328 366.893 118.668 367.707 117.828 368.28C116.988 368.84 116.028 369.12 114.948 369.12ZM114.948 367.8C115.775 367.8 116.495 367.58 117.108 367.14C117.721 366.687 118.201 366.033 118.548 365.18C118.895 364.313 119.068 363.253 119.068 362C119.068 360.747 118.895 359.693 118.548 358.84C118.201 357.973 117.721 357.32 117.108 356.88C116.495 356.427 115.775 356.2 114.948 356.2C114.148 356.2 113.435 356.427 112.808 356.88C112.181 357.32 111.695 357.973 111.348 358.84C111.001 359.693 110.828 360.747 110.828 362C110.828 363.253 111.001 364.313 111.348 365.18C111.695 366.033 112.181 366.687 112.808 367.14C113.435 367.58 114.148 367.8 114.948 367.8ZM128.19 369.12C127.11 369.12 126.15 368.84 125.31 368.28C124.47 367.707 123.81 366.893 123.33 365.84C122.85 364.773 122.61 363.493 122.61 362C122.61 360.507 122.85 359.233 123.33 358.18C123.81 357.113 124.47 356.3 125.31 355.74C126.15 355.167 127.11 354.88 128.19 354.88C129.27 354.88 130.23 355.167 131.07 355.74C131.91 356.3 132.57 357.113 133.05 358.18C133.544 359.233 133.79 360.507 133.79 362C133.79 363.493 133.544 364.773 133.05 365.84C132.57 366.893 131.91 367.707 131.07 368.28C130.23 368.84 129.27 369.12 128.19 369.12ZM128.19 367.8C129.017 367.8 129.737 367.58 130.35 367.14C130.964 366.687 131.444 366.033 131.79 365.18C132.137 364.313 132.31 363.253 132.31 362C132.31 360.747 132.137 359.693 131.79 358.84C131.444 357.973 130.964 357.32 130.35 356.88C129.737 356.427 129.017 356.2 128.19 356.2C127.39 356.2 126.677 356.427 126.05 356.88C125.424 357.32 124.937 357.973 124.59 358.84C124.244 359.693 124.07 360.747 124.07 362C124.07 363.253 124.244 364.313 124.59 365.18C124.937 366.033 125.424 366.687 126.05 367.14C126.677 367.58 127.39 367.8 128.19 367.8Z" fill="black"/>
<path d="M100.5 257L106.54 243.64L106.98 244.28H98.32L99.06 243.58V246.9H97.64V243H107.92V244.02L102.06 257H100.5ZM115.007 257.12C113.927 257.12 112.967 256.84 112.127 256.28C111.287 255.707 110.627 254.893 110.147 253.84C109.667 252.773 109.427 251.493 109.427 250C109.427 248.507 109.667 247.233 110.147 246.18C110.627 245.113 111.287 244.3 112.127 243.74C112.967 243.167 113.927 242.88 115.007 242.88C116.087 242.88 117.047 243.167 117.887 243.74C118.727 244.3 119.387 245.113 119.867 246.18C120.36 247.233 120.607 248.507 120.607 250C120.607 251.493 120.36 252.773 119.867 253.84C119.387 254.893 118.727 255.707 117.887 256.28C117.047 256.84 116.087 257.12 115.007 257.12ZM115.007 255.8C115.833 255.8 116.553 255.58 117.167 255.14C117.78 254.687 118.26 254.033 118.607 253.18C118.953 252.313 119.127 251.253 119.127 250C119.127 248.747 118.953 247.693 118.607 246.84C118.26 245.973 117.78 245.32 117.167 244.88C116.553 244.427 115.833 244.2 115.007 244.2C114.207 244.2 113.493 244.427 112.867 244.88C112.24 245.32 111.753 245.973 111.407 246.84C111.06 247.693 110.887 248.747 110.887 250C110.887 251.253 111.06 252.313 111.407 253.18C111.753 254.033 112.24 254.687 112.867 255.14C113.493 255.58 114.207 255.8 115.007 255.8ZM128.249 257.12C127.169 257.12 126.209 256.84 125.369 256.28C124.529 255.707 123.869 254.893 123.389 253.84C122.909 252.773 122.669 251.493 122.669 250C122.669 248.507 122.909 247.233 123.389 246.18C123.869 245.113 124.529 244.3 125.369 243.74C126.209 243.167 127.169 242.88 128.249 242.88C129.329 242.88 130.289 243.167 131.129 243.74C131.969 244.3 132.629 245.113 133.109 246.18C133.602 247.233 133.849 248.507 133.849 250C133.849 251.493 133.602 252.773 133.109 253.84C132.629 254.893 131.969 255.707 131.129 256.28C130.289 256.84 129.329 257.12 128.249 257.12ZM128.249 255.8C129.076 255.8 129.796 255.58 130.409 255.14C131.022 254.687 131.502 254.033 131.849 253.18C132.196 252.313 132.369 251.253 132.369 250C132.369 248.747 132.196 247.693 131.849 246.84C131.502 245.973 131.022 245.32 130.409 244.88C129.796 244.427 129.076 244.2 128.249 244.2C127.449 244.2 126.736 244.427 126.109 244.88C125.482 245.32 124.996 245.973 124.649 246.84C124.302 247.693 124.129 248.747 124.129 250C124.129 251.253 124.302 252.313 124.649 253.18C124.996 254.033 125.482 254.687 126.109 255.14C126.736 255.58 127.449 255.8 128.249 255.8Z" fill="black"/>
<path d="M100.48 145V131.6L101.12 132.28H97.18V131H101.92V145H100.48ZM110.847 145.12C109.767 145.12 108.807 144.84 107.967 144.28C107.127 143.707 106.467 142.893 105.987 141.84C105.507 140.773 105.267 139.493 105.267 138C105.267 136.507 105.507 135.233 105.987 134.18C106.467 133.113 107.127 132.3 107.967 131.74C108.807 131.167 109.767 130.88 110.847 130.88C111.927 130.88 112.887 131.167 113.727 131.74C114.567 132.3 115.227 133.113 115.707 134.18C116.2 135.233 116.447 136.507 116.447 138C116.447 139.493 116.2 140.773 115.707 141.84C115.227 142.893 114.567 143.707 113.727 144.28C112.887 144.84 111.927 145.12 110.847 145.12ZM110.847 143.8C111.673 143.8 112.393 143.58 113.007 143.14C113.62 142.687 114.1 142.033 114.447 141.18C114.793 140.313 114.967 139.253 114.967 138C114.967 136.747 114.793 135.693 114.447 134.84C114.1 133.973 113.62 133.32 113.007 132.88C112.393 132.427 111.673 132.2 110.847 132.2C110.047 132.2 109.333 132.427 108.707 132.88C108.08 133.32 107.593 133.973 107.247 134.84C106.9 135.693 106.727 136.747 106.727 138C106.727 139.253 106.9 140.313 107.247 141.18C107.593 142.033 108.08 142.687 108.707 143.14C109.333 143.58 110.047 143.8 110.847 143.8ZM124.089 145.12C123.009 145.12 122.049 144.84 121.209 144.28C120.369 143.707 119.709 142.893 119.229 141.84C118.749 140.773 118.509 139.493 118.509 138C118.509 136.507 118.749 135.233 119.229 134.18C119.709 133.113 120.369 132.3 121.209 131.74C122.049 131.167 123.009 130.88 124.089 130.88C125.169 130.88 126.129 131.167 126.969 131.74C127.809 132.3 128.469 133.113 128.949 134.18C129.442 135.233 129.689 136.507 129.689 138C129.689 139.493 129.442 140.773 128.949 141.84C128.469 142.893 127.809 143.707 126.969 144.28C126.129 144.84 125.169 145.12 124.089 145.12ZM124.089 143.8C124.915 143.8 125.635 143.58 126.249 143.14C126.862 142.687 127.342 142.033 127.689 141.18C128.035 140.313 128.209 139.253 128.209 138C128.209 136.747 128.035 135.693 127.689 134.84C127.342 133.973 126.862 133.32 126.249 132.88C125.635 132.427 124.915 132.2 124.089 132.2C123.289 132.2 122.575 132.427 121.949 132.88C121.322 133.32 120.835 133.973 120.489 134.84C120.142 135.693 119.969 136.747 119.969 138C119.969 139.253 120.142 140.313 120.489 141.18C120.835 142.033 121.322 142.687 121.949 143.14C122.575 143.58 123.289 143.8 124.089 143.8ZM137.331 145.12C136.251 145.12 135.291 144.84 134.451 144.28C133.611 143.707 132.951 142.893 132.471 141.84C131.991 140.773 131.751 139.493 131.751 138C131.751 136.507 131.991 135.233 132.471 134.18C132.951 133.113 133.611 132.3 134.451 131.74C135.291 131.167 136.251 130.88 137.331 130.88C138.411 130.88 139.371 131.167 140.211 131.74C141.051 132.3 141.711 133.113 142.191 134.18C142.684 135.233 142.931 136.507 142.931 138C142.931 139.493 142.684 140.773 142.191 141.84C141.711 142.893 141.051 143.707 140.211 144.28C139.371 144.84 138.411 145.12 137.331 145.12ZM137.331 143.8C138.158 143.8 138.878 143.58 139.491 143.14C140.104 142.687 140.584 142.033 140.931 141.18C141.278 140.313 141.451 139.253 141.451 138C141.451 136.747 141.278 135.693 140.931 134.84C140.584 133.973 140.104 133.32 139.491 132.88C138.878 132.427 138.158 132.2 137.331 132.2C136.531 132.2 135.818 132.427 135.191 132.88C134.564 133.32 134.078 133.973 133.731 134.84C133.384 135.693 133.211 136.747 133.211 138C133.211 139.253 133.384 140.313 133.731 141.18C134.078 142.033 134.564 142.687 135.191 143.14C135.818 143.58 136.531 143.8 137.331 143.8Z" fill="black"/>
<line x1="97" y1="541.5" x2="1200" y2="541.5" stroke="#D9D9D9"/>
<path d="M214.613 581.905V583.185H204.793V582.165L210.613 576.465C211.347 575.745 211.84 575.125 212.093 574.605C212.36 574.072 212.493 573.538 212.493 573.005C212.493 572.178 212.207 571.538 211.633 571.085C211.073 570.618 210.267 570.385 209.213 570.385C207.573 570.385 206.3 570.905 205.393 571.945L204.373 571.065C204.92 570.425 205.613 569.932 206.453 569.585C207.307 569.238 208.267 569.065 209.333 569.065C210.76 569.065 211.887 569.405 212.713 570.085C213.553 570.752 213.973 571.672 213.973 572.845C213.973 573.565 213.813 574.258 213.493 574.925C213.173 575.592 212.567 576.358 211.673 577.225L206.913 581.905H214.613ZM221.922 583.305C220.842 583.305 219.876 583.018 219.022 582.445C218.182 581.872 217.522 581.052 217.042 579.985C216.576 578.905 216.342 577.638 216.342 576.185C216.342 574.732 216.576 573.472 217.042 572.405C217.522 571.325 218.182 570.498 219.022 569.925C219.876 569.352 220.842 569.065 221.922 569.065C223.002 569.065 223.962 569.352 224.802 569.925C225.656 570.498 226.322 571.325 226.802 572.405C227.282 573.472 227.522 574.732 227.522 576.185C227.522 577.638 227.282 578.905 226.802 579.985C226.322 581.052 225.656 581.872 224.802 582.445C223.962 583.018 223.002 583.305 221.922 583.305ZM221.922 581.985C222.736 581.985 223.449 581.758 224.062 581.305C224.689 580.852 225.176 580.192 225.522 579.325C225.869 578.458 226.042 577.412 226.042 576.185C226.042 574.958 225.869 573.912 225.522 573.045C225.176 572.178 224.689 571.518 224.062 571.065C223.449 570.612 222.736 570.385 221.922 570.385C221.109 570.385 220.389 570.612 219.762 571.065C219.149 571.518 218.669 572.178 218.322 573.045C217.976 573.912 217.802 574.958 217.802 576.185C217.802 577.412 217.976 578.458 218.322 579.325C218.669 580.192 219.149 580.852 219.762 581.305C220.389 581.758 221.109 581.985 221.922 581.985ZM233.425 569.185V583.185H231.985V570.465H228.685V569.185H233.425ZM246.652 569.185V570.205L240.792 583.185H239.232L244.992 570.465H237.792V573.085H236.372V569.185H246.652Z" fill="#AAAAAA"/>
<rect x="192" y="467.049" width="70.9859" height="74.5869" fill="#D2E6F5"/>
<path d="M363.138 581.905V583.185H353.318V582.165L359.138 576.465C359.871 575.745 360.364 575.125 360.618 574.605C360.884 574.072 361.018 573.538 361.018 573.005C361.018 572.178 360.731 571.538 360.158 571.085C359.598 570.618 358.791 570.385 357.738 570.385C356.098 570.385 354.824 570.905 353.918 571.945L352.898 571.065C353.444 570.425 354.138 569.932 354.978 569.585C355.831 569.238 356.791 569.065 357.858 569.065C359.284 569.065 360.411 569.405 361.238 570.085C362.078 570.752 362.498 571.672 362.498 572.845C362.498 573.565 362.338 574.258 362.018 574.925C361.698 575.592 361.091 576.358 360.198 577.225L355.438 581.905H363.138ZM370.447 583.305C369.367 583.305 368.4 583.018 367.547 582.445C366.707 581.872 366.047 581.052 365.567 579.985C365.1 578.905 364.867 577.638 364.867 576.185C364.867 574.732 365.1 573.472 365.567 572.405C366.047 571.325 366.707 570.498 367.547 569.925C368.4 569.352 369.367 569.065 370.447 569.065C371.527 569.065 372.487 569.352 373.327 569.925C374.18 570.498 374.847 571.325 375.327 572.405C375.807 573.472 376.047 574.732 376.047 576.185C376.047 577.638 375.807 578.905 375.327 579.985C374.847 581.052 374.18 581.872 373.327 582.445C372.487 583.018 371.527 583.305 370.447 583.305ZM370.447 581.985C371.26 581.985 371.973 581.758 372.587 581.305C373.213 580.852 373.7 580.192 374.047 579.325C374.393 578.458 374.567 577.412 374.567 576.185C374.567 574.958 374.393 573.912 374.047 573.045C373.7 572.178 373.213 571.518 372.587 571.065C371.973 570.612 371.26 570.385 370.447 570.385C369.633 570.385 368.913 570.612 368.287 571.065C367.673 571.518 367.193 572.178 366.847 573.045C366.5 573.912 366.327 574.958 366.327 576.185C366.327 577.412 366.5 578.458 366.847 579.325C367.193 580.192 367.673 580.852 368.287 581.305C368.913 581.758 369.633 581.985 370.447 581.985ZM381.95 569.185V583.185H380.51V570.465H377.21V569.185H381.95ZM393.316 575.845C394.196 576.138 394.87 576.578 395.336 577.165C395.816 577.752 396.056 578.458 396.056 579.285C396.056 580.098 395.836 580.812 395.396 581.425C394.956 582.025 394.323 582.492 393.496 582.825C392.683 583.145 391.723 583.305 390.616 583.305C388.936 583.305 387.616 582.945 386.656 582.225C385.696 581.505 385.216 580.525 385.216 579.285C385.216 578.445 385.443 577.738 385.896 577.165C386.363 576.578 387.036 576.138 387.916 575.845C387.196 575.565 386.65 575.165 386.276 574.645C385.903 574.112 385.716 573.485 385.716 572.765C385.716 571.632 386.156 570.732 387.036 570.065C387.93 569.398 389.123 569.065 390.616 569.065C391.603 569.065 392.463 569.218 393.196 569.525C393.943 569.818 394.523 570.245 394.936 570.805C395.35 571.365 395.556 572.018 395.556 572.765C395.556 573.485 395.363 574.112 394.976 574.645C394.59 575.165 394.036 575.565 393.316 575.845ZM387.156 572.805C387.156 573.578 387.463 574.192 388.076 574.645C388.69 575.098 389.536 575.325 390.616 575.325C391.696 575.325 392.543 575.098 393.156 574.645C393.783 574.192 394.096 573.585 394.096 572.825C394.096 572.038 393.776 571.418 393.136 570.965C392.51 570.512 391.67 570.285 390.616 570.285C389.55 570.285 388.703 570.512 388.076 570.965C387.463 571.418 387.156 572.032 387.156 572.805ZM390.616 582.085C391.856 582.085 392.823 581.832 393.516 581.325C394.223 580.818 394.576 580.132 394.576 579.265C394.576 578.398 394.223 577.718 393.516 577.225C392.823 576.718 391.856 576.465 390.616 576.465C389.39 576.465 388.423 576.718 387.716 577.225C387.023 577.718 386.676 578.398 386.676 579.265C386.676 580.145 387.023 580.838 387.716 581.345C388.41 581.838 389.376 582.085 390.616 582.085Z" fill="#AAAAAA"/>
<rect x="341.617" y="428.021" width="70.9859" height="113.615" fill="#D2E6F5"/>
<path d="M513.846 581.905V583.185H504.026V582.165L509.846 576.465C510.579 575.745 511.073 575.125 511.326 574.605C511.593 574.072 511.726 573.538 511.726 573.005C511.726 572.178 511.439 571.538 510.866 571.085C510.306 570.618 509.499 570.385 508.446 570.385C506.806 570.385 505.533 570.905 504.626 571.945L503.606 571.065C504.153 570.425 504.846 569.932 505.686 569.585C506.539 569.238 507.499 569.065 508.566 569.065C509.993 569.065 511.119 569.405 511.946 570.085C512.786 570.752 513.206 571.672 513.206 572.845C513.206 573.565 513.046 574.258 512.726 574.925C512.406 575.592 511.799 576.358 510.906 577.225L506.146 581.905H513.846ZM521.155 583.305C520.075 583.305 519.108 583.018 518.255 582.445C517.415 581.872 516.755 581.052 516.275 579.985C515.808 578.905 515.575 577.638 515.575 576.185C515.575 574.732 515.808 573.472 516.275 572.405C516.755 571.325 517.415 570.498 518.255 569.925C519.108 569.352 520.075 569.065 521.155 569.065C522.235 569.065 523.195 569.352 524.035 569.925C524.888 570.498 525.555 571.325 526.035 572.405C526.515 573.472 526.755 574.732 526.755 576.185C526.755 577.638 526.515 578.905 526.035 579.985C525.555 581.052 524.888 581.872 524.035 582.445C523.195 583.018 522.235 583.305 521.155 583.305ZM521.155 581.985C521.968 581.985 522.682 581.758 523.295 581.305C523.922 580.852 524.408 580.192 524.755 579.325C525.102 578.458 525.275 577.412 525.275 576.185C525.275 574.958 525.102 573.912 524.755 573.045C524.408 572.178 523.922 571.518 523.295 571.065C522.682 570.612 521.968 570.385 521.155 570.385C520.342 570.385 519.622 570.612 518.995 571.065C518.382 571.518 517.902 572.178 517.555 573.045C517.208 573.912 517.035 574.958 517.035 576.185C517.035 577.412 517.208 578.458 517.555 579.325C517.902 580.192 518.382 580.852 518.995 581.305C519.622 581.758 520.342 581.985 521.155 581.985ZM532.658 569.185V583.185H531.218V570.465H527.918V569.185H532.658ZM540.365 569.065C542.218 569.065 543.638 569.678 544.625 570.905C545.612 572.118 546.105 573.838 546.105 576.065C546.105 577.625 545.838 578.945 545.305 580.025C544.772 581.105 544.025 581.925 543.065 582.485C542.105 583.032 540.985 583.305 539.705 583.305C538.318 583.305 537.212 583.052 536.385 582.545L536.965 581.385C537.632 581.825 538.538 582.045 539.685 582.045C541.232 582.045 542.445 581.558 543.325 580.585C544.205 579.598 544.645 578.172 544.645 576.305C544.645 575.958 544.625 575.578 544.585 575.165C544.238 575.925 543.685 576.518 542.925 576.945C542.165 577.358 541.292 577.565 540.305 577.565C539.385 577.565 538.565 577.392 537.845 577.045C537.138 576.698 536.585 576.212 536.185 575.585C535.785 574.945 535.585 574.205 535.585 573.365C535.585 572.512 535.792 571.758 536.205 571.105C536.618 570.452 537.185 569.952 537.905 569.605C538.638 569.245 539.458 569.065 540.365 569.065ZM540.525 576.345C541.232 576.345 541.852 576.212 542.385 575.945C542.932 575.678 543.358 575.312 543.665 574.845C543.972 574.378 544.125 573.858 544.125 573.285C544.125 572.752 543.978 572.258 543.685 571.805C543.405 571.352 542.985 570.985 542.425 570.705C541.865 570.425 541.198 570.285 540.425 570.285C539.412 570.285 538.585 570.565 537.945 571.125C537.318 571.672 537.005 572.405 537.005 573.325C537.005 574.245 537.318 574.978 537.945 575.525C538.585 576.072 539.445 576.345 540.525 576.345Z" fill="#AAAAAA"/>
<rect x="491.233" y="362.107" width="70.9859" height="179.529" fill="#D2E6F5"/>
<path d="M660.186 581.905V583.185H650.366V582.165L656.186 576.465C656.919 575.745 657.413 575.125 657.666 574.605C657.933 574.072 658.066 573.539 658.066 573.005C658.066 572.179 657.779 571.539 657.206 571.085C656.646 570.619 655.839 570.385 654.786 570.385C653.146 570.385 651.873 570.905 650.966 571.945L649.946 571.065C650.493 570.425 651.186 569.932 652.026 569.585C652.879 569.239 653.839 569.065 654.906 569.065C656.333 569.065 657.459 569.405 658.286 570.085C659.126 570.752 659.546 571.672 659.546 572.845C659.546 573.565 659.386 574.259 659.066 574.925C658.746 575.592 658.139 576.359 657.246 577.225L652.486 581.905H660.186ZM667.495 583.305C666.415 583.305 665.448 583.019 664.595 582.445C663.755 581.872 663.095 581.052 662.615 579.985C662.148 578.905 661.915 577.639 661.915 576.185C661.915 574.732 662.148 573.472 662.615 572.405C663.095 571.325 663.755 570.499 664.595 569.925C665.448 569.352 666.415 569.065 667.495 569.065C668.575 569.065 669.535 569.352 670.375 569.925C671.228 570.499 671.895 571.325 672.375 572.405C672.855 573.472 673.095 574.732 673.095 576.185C673.095 577.639 672.855 578.905 672.375 579.985C671.895 581.052 671.228 581.872 670.375 582.445C669.535 583.019 668.575 583.305 667.495 583.305ZM667.495 581.985C668.308 581.985 669.022 581.759 669.635 581.305C670.262 580.852 670.748 580.192 671.095 579.325C671.442 578.459 671.615 577.412 671.615 576.185C671.615 574.959 671.442 573.912 671.095 573.045C670.748 572.179 670.262 571.519 669.635 571.065C669.022 570.612 668.308 570.385 667.495 570.385C666.682 570.385 665.962 570.612 665.335 571.065C664.722 571.519 664.242 572.179 663.895 573.045C663.548 573.912 663.375 574.959 663.375 576.185C663.375 577.412 663.548 578.459 663.895 579.325C664.242 580.192 664.722 580.852 665.335 581.305C665.962 581.759 666.682 581.985 667.495 581.985ZM684.678 581.905V583.185H674.858V582.165L680.678 576.465C681.411 575.745 681.905 575.125 682.158 574.605C682.425 574.072 682.558 573.539 682.558 573.005C682.558 572.179 682.271 571.539 681.698 571.085C681.138 570.619 680.331 570.385 679.278 570.385C677.638 570.385 676.365 570.905 675.458 571.945L674.438 571.065C674.985 570.425 675.678 569.932 676.518 569.585C677.371 569.239 678.331 569.065 679.398 569.065C680.825 569.065 681.951 569.405 682.778 570.085C683.618 570.752 684.038 571.672 684.038 572.845C684.038 573.565 683.878 574.259 683.558 574.925C683.238 575.592 682.631 576.359 681.738 577.225L676.978 581.905H684.678ZM691.987 583.305C690.907 583.305 689.941 583.019 689.087 582.445C688.247 581.872 687.587 581.052 687.107 579.985C686.641 578.905 686.407 577.639 686.407 576.185C686.407 574.732 686.641 573.472 687.107 572.405C687.587 571.325 688.247 570.499 689.087 569.925C689.941 569.352 690.907 569.065 691.987 569.065C693.067 569.065 694.027 569.352 694.867 569.925C695.721 570.499 696.387 571.325 696.867 572.405C697.347 573.472 697.587 574.732 697.587 576.185C697.587 577.639 697.347 578.905 696.867 579.985C696.387 581.052 695.721 581.872 694.867 582.445C694.027 583.019 693.067 583.305 691.987 583.305ZM691.987 581.985C692.801 581.985 693.514 581.759 694.127 581.305C694.754 580.852 695.241 580.192 695.587 579.325C695.934 578.459 696.107 577.412 696.107 576.185C696.107 574.959 695.934 573.912 695.587 573.045C695.241 572.179 694.754 571.519 694.127 571.065C693.514 570.612 692.801 570.385 691.987 570.385C691.174 570.385 690.454 570.612 689.827 571.065C689.214 571.519 688.734 572.179 688.387 573.045C688.041 573.912 687.867 574.959 687.867 576.185C687.867 577.412 688.041 578.459 688.387 579.325C688.734 580.192 689.214 580.852 689.827 581.305C690.454 581.759 691.174 581.985 691.987 581.985Z" fill="#AAAAAA"/>
<rect x="640.85" y="223.34" width="70.9859" height="318.295" fill="#D2E6F5"/>
<path d="M813.079 581.905V583.185H803.259V582.165L809.079 576.465C809.812 575.745 810.306 575.125 810.559 574.605C810.826 574.072 810.959 573.538 810.959 573.005C810.959 572.178 810.672 571.538 810.099 571.085C809.539 570.618 808.732 570.385 807.679 570.385C806.039 570.385 804.766 570.905 803.859 571.945L802.839 571.065C803.386 570.425 804.079 569.932 804.919 569.585C805.772 569.238 806.732 569.065 807.799 569.065C809.226 569.065 810.352 569.405 811.179 570.085C812.019 570.752 812.439 571.672 812.439 572.845C812.439 573.565 812.279 574.258 811.959 574.925C811.639 575.592 811.032 576.358 810.139 577.225L805.379 581.905H813.079ZM820.388 583.305C819.308 583.305 818.341 583.018 817.488 582.445C816.648 581.872 815.988 581.052 815.508 579.985C815.041 578.905 814.808 577.638 814.808 576.185C814.808 574.732 815.041 573.472 815.508 572.405C815.988 571.325 816.648 570.498 817.488 569.925C818.341 569.352 819.308 569.065 820.388 569.065C821.468 569.065 822.428 569.352 823.268 569.925C824.121 570.498 824.788 571.325 825.268 572.405C825.748 573.472 825.988 574.732 825.988 576.185C825.988 577.638 825.748 578.905 825.268 579.985C824.788 581.052 824.121 581.872 823.268 582.445C822.428 583.018 821.468 583.305 820.388 583.305ZM820.388 581.985C821.201 581.985 821.915 581.758 822.528 581.305C823.155 580.852 823.641 580.192 823.988 579.325C824.335 578.458 824.508 577.412 824.508 576.185C824.508 574.958 824.335 573.912 823.988 573.045C823.641 572.178 823.155 571.518 822.528 571.065C821.915 570.612 821.201 570.385 820.388 570.385C819.575 570.385 818.855 570.612 818.228 571.065C817.615 571.518 817.135 572.178 816.788 573.045C816.441 573.912 816.268 574.958 816.268 576.185C816.268 577.412 816.441 578.458 816.788 579.325C817.135 580.192 817.615 580.852 818.228 581.305C818.855 581.758 819.575 581.985 820.388 581.985ZM837.571 581.905V583.185H827.751V582.165L833.571 576.465C834.305 575.745 834.798 575.125 835.051 574.605C835.318 574.072 835.451 573.538 835.451 573.005C835.451 572.178 835.165 571.538 834.591 571.085C834.031 570.618 833.225 570.385 832.171 570.385C830.531 570.385 829.258 570.905 828.351 571.945L827.331 571.065C827.878 570.425 828.571 569.932 829.411 569.585C830.265 569.238 831.225 569.065 832.291 569.065C833.718 569.065 834.845 569.405 835.671 570.085C836.511 570.752 836.931 571.672 836.931 572.845C836.931 573.565 836.771 574.258 836.451 574.925C836.131 575.592 835.525 576.358 834.631 577.225L829.871 581.905H837.571ZM843.258 569.185V583.185H841.818V570.465H838.518V569.185H843.258Z" fill="#AAAAAA"/>
<rect x="790.466" y="210.331" width="70.9859" height="331.305" fill="#D2E6F5"/>
<path d="M1149.44 581.905V583.185H1139.62V582.165L1145.44 576.465C1146.18 575.745 1146.67 575.125 1146.92 574.605C1147.19 574.072 1147.32 573.538 1147.32 573.005C1147.32 572.178 1147.04 571.538 1146.46 571.085C1145.9 570.618 1145.1 570.385 1144.04 570.385C1142.4 570.385 1141.13 570.905 1140.22 571.945L1139.2 571.065C1139.75 570.425 1140.44 569.932 1141.28 569.585C1142.14 569.238 1143.1 569.065 1144.16 569.065C1145.59 569.065 1146.72 569.405 1147.54 570.085C1148.38 570.752 1148.8 571.672 1148.8 572.845C1148.8 573.565 1148.64 574.258 1148.32 574.925C1148 575.592 1147.4 576.358 1146.5 577.225L1141.74 581.905H1149.44ZM1156.75 583.305C1155.67 583.305 1154.71 583.018 1153.85 582.445C1153.01 581.872 1152.35 581.052 1151.87 579.985C1151.41 578.905 1151.17 577.638 1151.17 576.185C1151.17 574.732 1151.41 573.472 1151.87 572.405C1152.35 571.325 1153.01 570.498 1153.85 569.925C1154.71 569.352 1155.67 569.065 1156.75 569.065C1157.83 569.065 1158.79 569.352 1159.63 569.925C1160.49 570.498 1161.15 571.325 1161.63 572.405C1162.11 573.472 1162.35 574.732 1162.35 576.185C1162.35 577.638 1162.11 578.905 1161.63 579.985C1161.15 581.052 1160.49 581.872 1159.63 582.445C1158.79 583.018 1157.83 583.305 1156.75 583.305ZM1156.75 581.985C1157.57 581.985 1158.28 581.758 1158.89 581.305C1159.52 580.852 1160.01 580.192 1160.35 579.325C1160.7 578.458 1160.87 577.412 1160.87 576.185C1160.87 574.958 1160.7 573.912 1160.35 573.045C1160.01 572.178 1159.52 571.518 1158.89 571.065C1158.28 570.612 1157.57 570.385 1156.75 570.385C1155.94 570.385 1155.22 570.612 1154.59 571.065C1153.98 571.518 1153.5 572.178 1153.15 573.045C1152.81 573.912 1152.63 574.958 1152.63 576.185C1152.63 577.412 1152.81 578.458 1153.15 579.325C1153.5 580.192 1153.98 580.852 1154.59 581.305C1155.22 581.758 1155.94 581.985 1156.75 581.985ZM1173.93 581.905V583.185H1164.11V582.165L1169.93 576.465C1170.67 575.745 1171.16 575.125 1171.41 574.605C1171.68 574.072 1171.81 573.538 1171.81 573.005C1171.81 572.178 1171.53 571.538 1170.95 571.085C1170.39 570.618 1169.59 570.385 1168.53 570.385C1166.89 570.385 1165.62 570.905 1164.71 571.945L1163.69 571.065C1164.24 570.425 1164.93 569.932 1165.77 569.585C1166.63 569.238 1167.59 569.065 1168.65 569.065C1170.08 569.065 1171.21 569.405 1172.03 570.085C1172.87 570.752 1173.29 571.672 1173.29 572.845C1173.29 573.565 1173.13 574.258 1172.81 574.925C1172.49 575.592 1171.89 576.358 1170.99 577.225L1166.23 581.905H1173.93ZM1180.5 575.185C1181.97 575.265 1183.08 575.665 1183.84 576.385C1184.62 577.092 1185 578.018 1185 579.165C1185 579.965 1184.81 580.678 1184.42 581.305C1184.04 581.918 1183.46 582.405 1182.7 582.765C1181.94 583.125 1181.02 583.305 1179.92 583.305C1178.91 583.305 1177.95 583.145 1177.04 582.825C1176.15 582.492 1175.43 582.052 1174.88 581.505L1175.58 580.365C1176.05 580.845 1176.67 581.238 1177.44 581.545C1178.22 581.838 1179.04 581.985 1179.92 581.985C1181.07 581.985 1181.96 581.738 1182.58 581.245C1183.21 580.738 1183.52 580.045 1183.52 579.165C1183.52 578.298 1183.21 577.618 1182.58 577.125C1181.96 576.632 1181.01 576.385 1179.74 576.385H1178.74V575.325L1182.62 570.465H1175.46V569.185H1184.46V570.205L1180.5 575.185Z" fill="#AAAAAA"/>
<rect x="1129.01" y="121" width="70.9859" height="420.636" fill="#95CBF3"/>
<path d="M980.169 581.905V583.185H970.349V582.165L976.169 576.465C976.902 575.745 977.396 575.125 977.649 574.605C977.916 574.072 978.049 573.538 978.049 573.005C978.049 572.178 977.762 571.538 977.189 571.085C976.629 570.618 975.822 570.385 974.769 570.385C973.129 570.385 971.856 570.905 970.949 571.945L969.929 571.065C970.476 570.425 971.169 569.932 972.009 569.585C972.862 569.238 973.822 569.065 974.889 569.065C976.316 569.065 977.442 569.405 978.269 570.085C979.109 570.752 979.529 571.672 979.529 572.845C979.529 573.565 979.369 574.258 979.049 574.925C978.729 575.592 978.122 576.358 977.229 577.225L972.469 581.905H980.169ZM987.478 583.305C986.398 583.305 985.431 583.018 984.578 582.445C983.738 581.872 983.078 581.052 982.598 579.985C982.131 578.905 981.898 577.638 981.898 576.185C981.898 574.732 982.131 573.472 982.598 572.405C983.078 571.325 983.738 570.498 984.578 569.925C985.431 569.352 986.398 569.065 987.478 569.065C988.558 569.065 989.518 569.352 990.358 569.925C991.211 570.498 991.878 571.325 992.358 572.405C992.838 573.472 993.078 574.732 993.078 576.185C993.078 577.638 992.838 578.905 992.358 579.985C991.878 581.052 991.211 581.872 990.358 582.445C989.518 583.018 988.558 583.305 987.478 583.305ZM987.478 581.985C988.291 581.985 989.005 581.758 989.618 581.305C990.245 580.852 990.731 580.192 991.078 579.325C991.425 578.458 991.598 577.412 991.598 576.185C991.598 574.958 991.425 573.912 991.078 573.045C990.731 572.178 990.245 571.518 989.618 571.065C989.005 570.612 988.291 570.385 987.478 570.385C986.665 570.385 985.945 570.612 985.318 571.065C984.705 571.518 984.225 572.178 983.878 573.045C983.531 573.912 983.358 574.958 983.358 576.185C983.358 577.412 983.531 578.458 983.878 579.325C984.225 580.192 984.705 580.852 985.318 581.305C985.945 581.758 986.665 581.985 987.478 581.985ZM1004.66 581.905V583.185H994.841V582.165L1000.66 576.465C1001.39 575.745 1001.89 575.125 1002.14 574.605C1002.41 574.072 1002.54 573.538 1002.54 573.005C1002.54 572.178 1002.25 571.538 1001.68 571.085C1001.12 570.618 1000.31 570.385 999.261 570.385C997.621 570.385 996.348 570.905 995.441 571.945L994.421 571.065C994.968 570.425 995.661 569.932 996.501 569.585C997.354 569.238 998.314 569.065 999.381 569.065C1000.81 569.065 1001.93 569.405 1002.76 570.085C1003.6 570.752 1004.02 571.672 1004.02 572.845C1004.02 573.565 1003.86 574.258 1003.54 574.925C1003.22 575.592 1002.61 576.358 1001.72 577.225L996.961 581.905H1004.66ZM1016.03 581.905V583.185H1006.21V582.165L1012.03 576.465C1012.76 575.745 1013.25 575.125 1013.51 574.605C1013.77 574.072 1013.91 573.538 1013.91 573.005C1013.91 572.178 1013.62 571.538 1013.05 571.085C1012.49 570.618 1011.68 570.385 1010.63 570.385C1008.99 570.385 1007.71 570.905 1006.81 571.945L1005.79 571.065C1006.33 570.425 1007.03 569.932 1007.87 569.585C1008.72 569.238 1009.68 569.065 1010.75 569.065C1012.17 569.065 1013.3 569.405 1014.13 570.085C1014.97 570.752 1015.39 571.672 1015.39 572.845C1015.39 573.565 1015.23 574.258 1014.91 574.925C1014.59 575.592 1013.98 576.358 1013.09 577.225L1008.33 581.905H1016.03Z" fill="#AAAAAA"/>
<rect x="959.74" y="185.179" width="70.9859" height="356.456" fill="#D2E6F5"/>
<g filter="url(#filter0_d_317_39189)">
<path d="M940.083 131C940.083 125.477 944.56 121 950.083 121H1040.38C1045.91 121 1050.38 125.477 1050.38 131V155.967C1050.38 161.49 1045.91 165.967 1040.38 165.967H1007.86C1005.49 165.967 1003.25 167.044 1001.78 168.893C998.665 172.793 992.736 172.793 989.623 168.893C988.147 167.044 985.91 165.967 983.545 165.967H950.083C944.56 165.967 940.083 161.49 940.083 155.967V131Z" fill="white"/>
</g>
<path d="M982.163 138.265C983.855 138.265 985.157 138.811 986.069 139.903C986.993 140.995 987.455 142.543 987.455 144.547C987.455 145.951 987.203 147.151 986.699 148.147C986.207 149.131 985.511 149.881 984.611 150.397C983.723 150.901 982.685 151.153 981.497 151.153C980.885 151.153 980.309 151.093 979.769 150.973C979.229 150.841 978.761 150.655 978.365 150.415L979.049 149.011C979.661 149.407 980.471 149.605 981.479 149.605C982.787 149.605 983.807 149.203 984.539 148.399C985.283 147.583 985.655 146.401 985.655 144.853V144.403C985.295 144.943 984.797 145.357 984.161 145.645C983.525 145.921 982.811 146.059 982.019 146.059C981.191 146.059 980.447 145.903 979.787 145.591C979.139 145.279 978.629 144.835 978.257 144.259C977.897 143.671 977.717 142.999 977.717 142.243C977.717 141.451 977.909 140.755 978.293 140.155C978.689 139.555 979.223 139.093 979.895 138.769C980.567 138.433 981.323 138.265 982.163 138.265ZM982.325 144.601C982.889 144.601 983.393 144.493 983.837 144.277C984.281 144.061 984.623 143.767 984.863 143.395C985.115 143.023 985.241 142.609 985.241 142.153C985.241 141.709 985.121 141.307 984.881 140.947C984.653 140.575 984.311 140.281 983.855 140.065C983.411 139.837 982.871 139.723 982.235 139.723C981.407 139.723 980.735 139.945 980.219 140.389C979.715 140.833 979.463 141.427 979.463 142.171C979.463 142.915 979.721 143.509 980.237 143.953C980.753 144.385 981.449 144.601 982.325 144.601ZM992.787 143.431C994.587 143.431 995.907 143.773 996.747 144.457C997.599 145.129 998.025 146.053 998.025 147.229C998.025 147.973 997.845 148.645 997.485 149.245C997.137 149.833 996.603 150.301 995.883 150.649C995.175 150.985 994.299 151.153 993.255 151.153C992.367 151.153 991.509 151.021 990.681 150.757C989.853 150.481 989.169 150.103 988.629 149.623L989.457 148.201C989.889 148.609 990.441 148.939 991.113 149.191C991.785 149.431 992.493 149.551 993.237 149.551C994.185 149.551 994.917 149.353 995.433 148.957C995.961 148.549 996.225 147.997 996.225 147.301C996.225 146.545 995.937 145.975 995.361 145.591C994.785 145.195 993.801 144.997 992.409 144.997H989.547L990.213 138.409H997.323V139.975H991.725L991.383 143.431H992.787ZM1008.29 149.443V151.009H999.237V149.785L1004.37 144.835C1004.99 144.235 1005.41 143.719 1005.63 143.287C1005.84 142.843 1005.95 142.399 1005.95 141.955C1005.95 141.295 1005.72 140.785 1005.25 140.425C1004.79 140.053 1004.13 139.867 1003.27 139.867C1001.88 139.867 1000.8 140.323 1000.05 141.235L998.823 140.173C999.315 139.573 999.957 139.105 1000.75 138.769C1001.55 138.433 1002.45 138.265 1003.43 138.265C1004.75 138.265 1005.8 138.583 1006.58 139.219C1007.36 139.843 1007.75 140.695 1007.75 141.775C1007.75 142.447 1007.61 143.083 1007.32 143.683C1007.03 144.283 1006.48 144.967 1005.68 145.735L1001.83 149.443H1008.29Z" fill="#AAAAAA"/>
<defs>
<filter id="filter0_d_317_39189" x="933.083" y="114" width="130.301" height="70.8176" filterUnits="userSpaceOnUse" color-interpolation-filters="sRGB">
<feFlood flood-opacity="0" result="BackgroundImageFix"/>
<feColorMatrix in="SourceAlpha" type="matrix" values="0 0 0 0 0 0 0 0 0 0 0 0 0 0 0 0 0 0 127 0" result="hardAlpha"/>
<feOffset dx="3" dy="3"/>
<feGaussianBlur stdDeviation="5"/>
<feComposite in2="hardAlpha" operator="out"/>
<feColorMatrix type="matrix" values="0 0 0 0 0 0 0 0 0 0 0 0 0 0 0 0 0 0 0.13 0"/>
<feBlend mode="normal" in2="BackgroundImageFix" result="effect1_dropShadow_317_39189"/>
<feBlend mode="normal" in="SourceGraphic" in2="effect1_dropShadow_317_39189" result="shape"/>
</filter>
</defs>
</svg>
